<svg version="1.1" xmlns="http://www.w3.org/2000/svg" viewBox="0 0 751 365.91666666666686" width="751" height="365.91666666666686">
  <!-- svg-source:excalidraw -->

  <defs>
    <style class="style-fonts">
      @font-face {
        font-family: "Virgil";
        src: url("https://excalidraw.com/Virgil.woff2");
      }
      @font-face {
        font-family: "Cascadia";
        src: url("https://excalidraw.com/Cascadia.woff2");
      }
      @font-face {
        font-family: "Assistant";
        src: url("https://excalidraw.com/Assistant-Regular.woff2");
      }
    </style>

  </defs>
  <rect x="0" y="0" width="751" height="365.91666666666686" fill="#ffffff"></rect><g stroke-linecap="round" transform="translate(10 57.583333333333314) rotate(0 166 146.94444444444443)"><path d="M32 0 C87.77 -2.31, 143.97 -2.17, 300 0 M32 0 C125.76 -0.49, 217.7 -0.65, 300 0 M300 0 C320.11 0.02, 331.67 11.84, 332 32 M300 0 C319.15 -1.22, 333.69 12.4, 332 32 M332 32 C330.56 101.08, 329.52 169.84, 332 261.89 M332 32 C332.26 99.67, 332.51 167.27, 332 261.89 M332 261.89 C331.79 284.43, 320.41 292.74, 300 293.89 M332 261.89 C332.81 283.41, 319.42 292.86, 300 293.89 M300 293.89 C214.45 292.69, 128.99 290.55, 32 293.89 M300 293.89 C243.63 291.67, 187.02 292.57, 32 293.89 M32 293.89 C9.34 295.21, 0.96 284.69, 0 261.89 M32 293.89 C9.68 293.43, 1.3 282.58, 0 261.89 M0 261.89 C-0.77 173.26, -1.01 88.91, 0 32 M0 261.89 C-2.19 171.73, -1.66 82.03, 0 32 M0 32 C-0.71 12.02, 12.09 1.78, 32 0 M0 32 C2.03 12.7, 8.9 -1.4, 32 0" stroke="#1e1e1e" stroke-width="2" fill="none"></path></g><g stroke-linecap="round" transform="translate(399 54.333333333333314) rotate(0 171 150.79166666666677)"><path d="M32 0 C119.5 -0.91, 208.13 1.15, 310 0 M32 0 C93.49 0.42, 154.87 -0.39, 310 0 M310 0 C332.53 -1.95, 343.91 9.83, 342 32 M310 0 C332.55 -0.27, 342.12 11.55, 342 32 M342 32 C344.98 122.56, 344.3 216.68, 342 269.58 M342 32 C342.3 95.5, 342.41 158.79, 342 269.58 M342 269.58 C342.69 291.32, 330.16 301.48, 310 301.58 M342 269.58 C342.25 291.13, 331.43 302.07, 310 301.58 M310 301.58 C241.48 300.84, 175.59 299.96, 32 301.58 M310 301.58 C220.05 302.06, 129.95 301.88, 32 301.58 M32 301.58 C12.41 301.54, -1.42 290.85, 0 269.58 M32 301.58 C9.23 300.16, -0.91 293.04, 0 269.58 M0 269.58 C-1.18 218.97, -1.3 169.66, 0 32 M0 269.58 C0.74 182.48, 1.75 95.38, 0 32 M0 32 C1.13 11.75, 12.36 -0.11, 32 0 M0 32 C1.04 11.07, 12.37 -2.15, 32 0" stroke="#1e1e1e" stroke-width="2" fill="none"></path></g><g transform="translate(80.22222222222217 12.5) rotate(0 80.6119613647461 17.5)"><text x="0" y="0" font-family="Virgil, Segoe UI Emoji" font-size="28px" fill="#1e1e1e" text-anchor="start" style="white-space: pre;" direction="ltr" dominant-baseline="text-before-edge">main thread</text></g><g transform="translate(468.9722222222222 10) rotate(0 95.60594940185547 17.5)"><text x="0" y="0" font-family="Virgil, Segoe UI Emoji" font-size="28px" fill="#1e1e1e" text-anchor="start" style="white-space: pre;" direction="ltr" dominant-baseline="text-before-edge">worker thread</text></g><g stroke-linecap="round" transform="translate(26.47222222222217 115) rotate(0 350.625 40.20833333333334)"><path d="M20.1 0 C176.03 0.72, 332.46 0.99, 681.15 0 M681.15 0 C694.14 0.06, 702.14 7.6, 701.25 20.1 M701.25 20.1 C699.38 33.59, 702.55 42.21, 701.25 60.31 M701.25 60.31 C699.38 74.65, 693.38 81.78, 681.15 80.42 M681.15 80.42 C508.38 80.93, 335.52 80.24, 20.1 80.42 M20.1 80.42 C6.37 80.29, 0.1 71.93, 0 60.31 M0 60.31 C-0.14 48.16, 1.5 39.55, 0 20.1 M0 20.1 C0.64 7.08, 7.89 1.51, 20.1 0" stroke="#1e1e1e" stroke-width="2.5" fill="none" stroke-dasharray="8 10"></path></g><g transform="translate(34.97222222222217 84.75) rotate(0 44.20995330810547 12.5)"><text x="0" y="0" font-family="Virgil, Segoe UI Emoji" font-size="20px" fill="#1e1e1e" text-anchor="start" style="white-space: pre;" direction="ltr" dominant-baseline="text-before-edge">worker-fn</text></g><g transform="translate(83.83333333333337 137.5) rotate(0 66.4599380493164 12.5)"><text x="0" y="0" font-family="Virgil, Segoe UI Emoji" font-size="20px" fill="#1e1e1e" text-anchor="start" style="white-space: pre;" direction="ltr" dominant-baseline="text-before-edge">useWorkerFn()</text></g><g transform="translate(477.0277777777778 137.5) rotate(0 78.22992706298828 12.5)"><text x="0" y="0" font-family="Virgil, Segoe UI Emoji" font-size="20px" fill="#1e1e1e" text-anchor="start" style="white-space: pre;" direction="ltr" dominant-baseline="text-before-edge">defineWorkerFn()</text></g><g transform="translate(52.30555555555543 281.11111111111103) rotate(0 75.24995422363281 12.5)"><text x="0" y="0" font-family="Virgil, Segoe UI Emoji" font-size="20px" fill="#1e1e1e" text-anchor="start" style="white-space: pre;" direction="ltr" dominant-baseline="text-before-edge">await add(1, 2)</text></g><g transform="translate(476.33333333333303 283.4722222222223) rotate(0 88.179931640625 12.5)"><text x="0" y="0" font-family="Virgil, Segoe UI Emoji" font-size="20px" fill="#1e1e1e" text-anchor="start" style="white-space: pre;" direction="ltr" dominant-baseline="text-before-edge">function add(a, b)</text></g><g stroke-linecap="round"><g transform="translate(101.1232972329642 167.77777777777777) rotate(0 0.7854955593156774 51.66666666666663)"><path d="M0 0 C-0.47 7.66, -3.58 28.75, -2.85 45.97 C-2.11 63.19, 3.21 93.77, 4.42 103.33 M0 0 C-0.47 7.66, -3.58 28.75, -2.85 45.97 C-2.11 63.19, 3.21 93.77, 4.42 103.33" stroke="#1e1e1e" stroke-width="2" fill="none"></path></g><g transform="translate(101.1232972329642 167.77777777777777) rotate(0 0.7854955593156774 51.66666666666663)"><path d="M5.94 22.25 C4.64 17.38, 3.34 12.5, 0 0 M5.94 22.25 C4.63 17.36, 3.33 12.48, 0 0" stroke="#1e1e1e" stroke-width="2" fill="none"></path></g><g transform="translate(101.1232972329642 167.77777777777777) rotate(0 0.7854955593156774 51.66666666666663)"><path d="M-9.75 20.86 C-7.62 16.29, -5.48 11.72, 0 0 M-9.75 20.86 C-7.61 16.28, -5.47 11.7, 0 0" stroke="#1e1e1e" stroke-width="2" fill="none"></path></g><g transform="translate(101.1232972329642 167.77777777777777) rotate(0 0.7854955593156774 51.66666666666663)"><path d="M-7.46 81.33 C-4.86 86.15, -2.26 90.97, 4.42 103.33 M-7.46 81.33 C-4.85 86.17, -2.24 91, 4.42 103.33" stroke="#1e1e1e" stroke-width="2" fill="none"></path></g><g transform="translate(101.1232972329642 167.77777777777777) rotate(0 0.7854955593156774 51.66666666666663)"><path d="M9.46 78.85 C8.35 84.21, 7.25 89.58, 4.42 103.33 M9.46 78.85 C8.35 84.22, 7.24 89.6, 4.42 103.33" stroke="#1e1e1e" stroke-width="2" fill="none"></path></g></g><mask></mask><g stroke-linecap="round"><g transform="translate(601.785647874917 175) rotate(0 -3.8482422025095957 47.36111111111114)"><path d="M0 0 C-0.26 7.45, -0.28 28.94, -1.56 44.72 C-2.85 60.51, -6.67 86.39, -7.7 94.72 M0 0 C-0.26 7.45, -0.28 28.94, -1.56 44.72 C-2.85 60.51, -6.67 86.39, -7.7 94.72" stroke="#1e1e1e" stroke-width="2" fill="none"></path></g><g transform="translate(601.785647874917 175) rotate(0 -3.8482422025095957 47.36111111111114)"><path d="M7.15 21.2 C5.14 15.26, 3.14 9.33, 0 0 M7.15 21.2 C4.78 14.19, 2.42 7.18, 0 0" stroke="#1e1e1e" stroke-width="2" fill="none"></path></g><g transform="translate(601.785647874917 175) rotate(0 -3.8482422025095957 47.36111111111114)"><path d="M-8.16 20.84 C-5.87 15, -3.59 9.16, 0 0 M-8.16 20.84 C-5.46 13.94, -2.76 7.05, 0 0" stroke="#1e1e1e" stroke-width="2" fill="none"></path></g><g transform="translate(601.785647874917 175) rotate(0 -3.8482422025095957 47.36111111111114)"><path d="M-13.07 70.31 C-11.56 77.14, -10.06 83.98, -7.7 94.72 M-13.07 70.31 C-11.29 78.38, -9.51 86.46, -7.7 94.72" stroke="#1e1e1e" stroke-width="2" fill="none"></path></g><g transform="translate(601.785647874917 175) rotate(0 -3.8482422025095957 47.36111111111114)"><path d="M3.89 72.57 C0.64 78.77, -2.6 84.98, -7.7 94.72 M3.89 72.57 C0.05 79.9, -3.78 87.22, -7.7 94.72" stroke="#1e1e1e" stroke-width="2" fill="none"></path></g></g><mask></mask><g stroke-linecap="round"><g transform="translate(124.32369824862337 269.54045759385554) rotate(0 224.47970915823606 -47.06753322878674)"><path d="M0 0 C7.72 -12.7, 6.95 -60.2, 46.32 -76.21 C85.68 -92.22, 176.92 -96.07, 236.18 -96.07 C295.44 -96.07, 366.41 -92.54, 401.87 -76.21 C437.33 -59.87, 441.11 -11.09, 448.96 1.93 M0 0 C7.72 -12.7, 6.95 -60.2, 46.32 -76.21 C85.68 -92.22, 176.92 -96.07, 236.18 -96.07 C295.44 -96.07, 366.41 -92.54, 401.87 -76.21 C437.33 -59.87, 441.11 -11.09, 448.96 1.93" stroke="#1e1e1e" stroke-width="2" fill="none"></path></g><g transform="translate(124.32369824862337 269.54045759385554) rotate(0 224.47970915823606 -47.06753322878674)"><path d="M0.14 -25 C0.11 -19.2, 0.08 -13.4, 0 0 M0.14 -25 C0.09 -15.4, 0.03 -5.8, 0 0" stroke="#1e1e1e" stroke-width="2" fill="none"></path></g><g transform="translate(124.32369824862337 269.54045759385554) rotate(0 224.47970915823606 -47.06753322878674)"><path d="M16.18 -19.06 C12.43 -14.64, 8.67 -10.22, 0 0 M16.18 -19.06 C9.97 -11.74, 3.75 -4.42, 0 0" stroke="#1e1e1e" stroke-width="2" fill="none"></path></g><g transform="translate(124.32369824862337 269.54045759385554) rotate(0 224.47970915823606 -47.06753322878674)"><path d="M433.05 -17.35 C436.74 -12.88, 440.43 -8.4, 448.96 1.93 M433.05 -17.35 C439.16 -9.94, 445.27 -2.54, 448.96 1.93" stroke="#1e1e1e" stroke-width="2" fill="none"></path></g><g transform="translate(124.32369824862337 269.54045759385554) rotate(0 224.47970915823606 -47.06753322878674)"><path d="M449.16 -23.07 C449.12 -17.27, 449.07 -11.47, 448.96 1.93 M449.16 -23.07 C449.09 -13.46, 449.01 -3.86, 448.96 1.93" stroke="#1e1e1e" stroke-width="2" fill="none"></path></g></g><mask></mask></svg>
